<svg version="1.1" id="Layer_1" xmlns="http://www.w3.org/2000/svg" xmlns:xlink="http://www.w3.org/1999/xlink" x="0px" y="0px"
	 width="100%" viewBox="0 0 1080 648" enable-background="new 0 0 1080 648" xml:space="preserve">
<path fill="#000000" opacity="1.000000" stroke="none" 
	d="
M817.000000,649.000000 
	C544.666748,649.000000 272.833496,649.000000 1.000182,649.000000 
	C1.000122,433.000153 1.000122,217.000290 1.000061,1.000327 
	C360.999756,1.000218 720.999512,1.000218 1080.999512,1.000109 
	C1080.999634,216.999680 1080.999634,432.999359 1080.999756,648.999512 
	C993.166687,649.000000 905.333313,649.000000 817.000000,649.000000 
M807.500000,376.003510 
	C825.768188,375.669006 844.035156,375.161011 862.304749,375.041870 
	C887.799438,374.875610 913.297119,374.856110 938.791077,375.067169 
	C949.769165,375.158051 960.277710,373.285156 970.707581,370.024597 
	C999.551270,361.007538 1021.509155,335.735687 1020.028259,302.153534 
	C1019.517029,290.559845 1019.035828,278.950775 1019.072815,267.350433 
	C1019.122498,251.748642 1019.863098,236.149612 1019.960815,220.547226 
	C1020.013611,212.115402 1019.154480,203.681381 1019.053040,195.244186 
	C1018.933777,185.328690 1014.994202,176.743149 1010.011292,168.613190 
	C1001.322815,154.437088 988.139465,145.722702 972.882446,140.167740 
	C965.437683,137.457138 957.538940,134.301544 949.831421,134.263947 
	C864.347900,133.846741 778.861572,134.001694 693.376038,134.002029 
	C691.631653,134.002045 689.887268,134.002029 688.295471,134.002029 
	C688.295471,155.055344 688.295471,175.321014 688.295471,195.999908 
	C690.541321,195.999908 692.508606,195.999908 694.475952,195.999908 
	C761.297974,195.999924 828.120117,195.968628 894.942017,196.043884 
	C902.369568,196.052246 909.867065,196.143524 917.205933,197.132660 
	C926.559937,198.393402 934.511475,203.255493 936.749634,212.680634 
	C939.491272,224.226379 941.048767,236.178177 941.788757,248.037369 
	C942.456848,258.744476 941.468506,269.569580 940.971313,280.331573 
	C940.012817,301.081421 927.024292,314.855865 906.131958,314.919067 
	C835.811157,315.131744 765.489319,314.999939 695.167847,314.999939 
	C693.232117,314.999939 691.296387,314.999939 689.363770,314.999939 
	C689.363770,335.361267 689.363770,355.087921 689.363770,376.003540 
	C728.643677,376.003540 767.571838,376.003540 807.500000,376.003510 
M306.500000,375.000519 
	C315.255646,375.000519 324.011261,375.000519 332.750824,375.000519 
	C332.750824,354.981903 332.750824,335.716675 332.750824,315.791595 
	C282.560059,315.791595 232.613678,315.791595 181.255936,315.791595 
	C226.059692,285.358307 269.585815,255.792816 314.239105,225.461716 
	C310.489960,224.813202 308.146332,224.061096 305.800629,224.054718 
	C276.304535,223.974518 246.807602,223.917816 217.312714,224.122131 
	C214.086761,224.144470 210.483582,225.182358 207.718857,226.849487 
	C194.737091,234.677490 181.955353,242.839905 169.160812,250.975113 
	C136.231964,271.912415 103.365761,292.948578 70.382004,313.798859 
	C66.451508,316.283508 64.825264,319.136444 64.904587,323.829773 
	C65.160805,338.990204 65.000099,354.157684 65.000069,369.322449 
	C65.000069,371.092255 65.000069,372.862030 65.000069,375.000519 
	C145.583725,375.000519 225.541870,375.000519 306.500000,375.000519 
M311.499878,134.000214 
	C229.445587,134.000214 147.391296,134.000214 65.393295,134.000214 
	C65.393295,153.706467 65.393295,172.748657 65.393295,191.578827 
	C154.802444,191.578827 243.817184,191.578827 332.694000,191.578827 
	C332.694000,172.232895 332.694000,153.309372 332.694000,134.000214 
	C325.761780,134.000214 319.130798,134.000214 311.499878,134.000214 
M607.500000,133.998688 
	C532.699707,133.998840 457.899475,133.997040 383.099213,134.002319 
	C376.023468,134.002823 376.010010,134.023407 376.005432,141.216782 
	C375.996124,155.876968 375.992981,170.537155 376.007294,185.197327 
	C376.013885,191.973572 376.035156,191.994995 383.017212,191.996582 
	C418.334930,192.004608 453.652649,192.000732 488.970367,192.000732 
	C538.281921,192.000717 587.593445,192.003311 636.904968,191.997055 
	C643.977783,191.996155 643.991638,191.976120 643.996277,184.780823 
	C644.005859,170.120636 644.008789,155.460449 643.994507,140.800278 
	C643.987915,134.042648 643.966675,134.019440 637.487183,134.005127 
	C627.824829,133.983765 618.162415,133.999008 607.500000,133.998688 
M643.997437,347.500000 
	C643.996155,339.503021 643.841431,331.501923 644.058105,323.510834 
	C644.166626,319.507446 642.948547,317.612885 638.694946,317.955292 
	C635.549988,318.208435 632.368042,318.000244 629.202576,318.000214 
	C547.566650,317.999969 465.930695,317.999512 384.294769,318.000854 
	C376.005798,318.000977 376.002808,318.006134 376.001221,326.511841 
	C375.998688,340.006775 375.997406,353.501678 376.001831,366.996613 
	C376.004456,374.987793 376.009857,374.996826 383.805817,374.997131 
	C452.113434,374.999603 520.421082,374.998657 588.728699,374.998657 
	C604.722656,374.998657 620.716675,375.004089 636.710632,374.995880 
	C643.982178,374.992126 643.987000,374.979767 643.995605,367.492859 
	C644.002930,361.161896 643.997314,354.830963 643.997437,347.500000 
M397.500183,280.000000 
	C418.328430,280.000000 439.156708,280.000031 459.984955,279.999969 
	C518.970581,279.999847 577.956177,280.001984 636.941772,279.996552 
	C643.979614,279.995911 643.991333,279.976807 643.996399,272.780304 
	C644.005493,259.950104 644.005005,247.119904 643.996704,234.289703 
	C643.991943,227.013672 643.981384,227.001602 636.517944,227.001343 
	C552.205200,226.998413 467.892487,226.999374 383.579742,227.000397 
	C382.413422,227.000412 381.243469,227.076889 380.081451,227.009979 
	C377.044403,226.835098 375.978607,228.345703 375.989502,231.243256 
	C376.045227,246.072693 376.068115,260.902771 375.972351,275.731781 
	C375.950928,279.051544 377.401367,280.096954 380.505096,280.023224 
	C385.833984,279.896637 391.168274,279.995667 397.500183,280.000000 
M373.501770,477.999878 
	C392.659210,478.000122 411.816681,477.996368 430.974121,478.008423 
	C432.468292,478.009369 434.094330,477.761902 435.430573,478.252380 
	C438.742462,479.468018 441.138947,481.773163 440.917511,485.587402 
	C440.690979,489.489166 436.833221,491.982391 431.243866,491.987000 
	C399.092621,492.013428 366.940125,492.149353 334.791016,491.887360 
	C327.387878,491.827026 320.758972,489.125214 316.541168,482.185974 
	C312.822998,476.068695 311.469055,469.931580 312.849152,462.651733 
	C315.249359,449.990845 322.834137,443.002106 335.741119,443.000793 
	C372.889984,442.996979 410.038849,443.000214 447.187714,442.999176 
	C448.520264,442.999146 449.869354,443.116119 451.182526,442.952362 
	C457.676880,442.142242 460.979736,438.878967 461.387665,432.987915 
	C461.756897,427.656006 459.733978,424.567902 454.657898,423.332672 
	C451.805145,422.638458 448.831726,422.043579 445.916718,422.061462 
	C405.830200,422.307404 365.740051,422.436218 325.661835,423.184174 
	C317.032043,423.345215 309.011322,427.342560 303.401093,434.272186 
	C290.800873,449.835602 288.759491,467.459595 295.023743,486.044250 
	C299.849487,500.361206 311.845001,512.689941 330.139679,512.225159 
	C353.541901,511.630554 376.985016,512.719910 400.411652,512.978149 
	C412.071320,513.106689 423.745300,513.325134 435.391144,512.903870 
	C445.899536,512.523743 455.333862,508.932037 459.596741,498.458496 
	C462.638977,490.983887 462.836975,482.820007 460.402527,474.886841 
	C456.003784,460.552856 446.709442,456.645996 431.655151,456.184540 
	C408.687744,455.480530 385.682617,455.953644 362.694092,456.054871 
	C359.613007,456.068420 356.460693,456.537994 353.473206,457.307953 
	C348.880798,458.491577 345.792572,462.990143 346.003876,467.481201 
	C346.249237,472.695923 348.823883,476.155365 354.259094,476.895294 
	C360.278931,477.714783 366.416565,477.668915 373.501770,477.999878 
M62.000355,491.473389 
	C62.000473,494.138092 61.727566,496.836395 62.050621,499.461365 
	C63.128101,508.216248 63.783524,512.079224 74.907623,512.046570 
	C115.211731,511.928467 155.520035,511.699097 195.818634,512.185242 
	C207.742676,512.329102 215.313080,506.335571 221.910614,498.019257 
	C232.904221,484.161682 234.391479,468.085876 229.686127,451.901276 
	C224.268677,433.267456 211.251877,421.010742 189.900696,421.003082 
	C152.261002,420.989563 114.620567,420.869354 76.982040,421.079712 
	C65.916435,421.141571 61.885944,423.961090 61.968143,436.020935 
	C62.091873,454.173767 62.000454,472.328033 62.000355,491.473389 
M680.909790,440.614105 
	C685.127502,436.906525 686.169983,432.327728 683.910767,427.315155 
	C681.882263,422.814331 677.856567,421.015472 673.073608,421.013184 
	C626.258545,420.990967 579.443420,420.966400 532.628723,421.094727 
	C530.176208,421.101440 527.431824,422.012665 525.341064,423.326599 
	C521.488953,425.747406 519.969421,431.561859 521.865417,436.028961 
	C523.959106,440.961548 527.605530,442.966522 532.599365,442.980286 
	C550.592224,443.029877 568.585205,442.999939 586.578186,443.000031 
	C588.323364,443.000031 590.068542,443.000000 592.000061,443.000000 
	C592.000061,450.120972 591.896057,456.446747 592.021667,462.767944 
	C592.285095,476.027649 592.532410,489.290497 593.065491,502.540833 
	C593.306702,508.537018 597.894409,512.843506 603.375610,512.995483 
	C608.182312,513.128723 612.636414,508.568634 612.952637,502.600555 
	C613.469116,492.851776 613.799561,483.088379 613.963074,473.327026 
	C614.129639,463.381531 613.999939,453.431091 613.999939,443.000275 
	C616.283997,443.000275 618.071045,443.000275 619.858093,443.000275 
	C637.184631,443.000244 654.512024,443.083527 671.836975,442.916809 
	C674.667847,442.889557 677.488098,441.759430 680.909790,440.614105 
M784.497253,476.977325 
	C791.987488,486.694550 799.633240,496.297089 806.915466,506.167786 
	C812.106140,513.203613 818.905212,515.052124 825.012085,510.468689 
	C829.162170,507.353882 829.724304,499.315491 826.070129,494.607574 
	C808.608643,472.110870 791.210083,449.564697 773.630371,427.160675 
	C764.076904,414.985504 745.836487,412.815155 734.003235,424.848053 
	C726.251770,432.730255 720.129211,442.232574 713.419312,451.116638 
	C702.375183,465.739349 691.390320,480.407684 680.498352,495.143890 
	C676.582275,500.441986 677.330383,507.878571 681.777222,511.287048 
	C686.132385,514.625305 694.321960,513.306946 698.076111,508.356812 
	C706.475769,497.281311 714.649902,486.034912 723.032043,474.945892 
	C731.137451,464.222870 739.215820,453.470520 747.656982,443.014343 
	C751.238220,438.578186 755.215698,438.820801 758.748596,443.340210 
	C767.295654,454.273956 775.592712,465.403137 784.497253,476.977325 
M846.999878,461.500000 
	C847.000000,471.494659 846.970520,481.489410 847.008301,491.483917 
	C847.049622,502.404236 856.572266,511.984528 867.452515,511.990326 
	C911.428955,512.013733 955.405457,512.003784 999.381897,511.996277 
	C1006.063599,511.995117 1010.033630,508.388184 1009.999023,502.418610 
	C1009.959778,495.641724 1006.155945,492.006134 999.049622,492.002991 
	C978.893738,491.994110 958.737915,491.999725 938.582031,491.999634 
	C918.759338,491.999542 898.936523,492.022034 879.113892,491.988037 
	C871.463135,491.974915 869.001404,489.509705 869.000000,482.099121 
	C868.997498,468.606354 869.080811,455.112732 868.947327,441.621307 
	C868.908447,437.691711 868.984009,433.497955 867.659424,429.924927 
	C866.541870,426.910278 863.963806,423.291656 861.173950,422.259094 
	C853.102112,419.271515 847.128784,424.345978 847.022949,433.514709 
	C846.919067,442.508667 847.000061,451.504822 846.999878,461.500000 
M766.993713,280.252594 
	C766.993713,262.322571 766.993713,244.392563 766.993713,226.309113 
	C740.771118,226.309113 715.074402,226.309113 689.361328,226.309113 
	C689.361328,245.323715 689.361328,264.026062 689.361328,282.995148 
	C714.511963,282.995148 739.302307,283.015198 764.092224,282.919647 
	C765.053650,282.915924 766.010742,281.802673 766.993713,280.252594 
M271.998840,499.065430 
	C271.999207,476.439423 271.748749,453.808960 272.152771,431.190155 
	C272.273987,424.403656 267.049805,419.170715 262.602081,418.974487 
	C256.277222,418.695496 251.159988,423.179657 251.088409,430.355377 
	C250.864395,452.812775 250.637238,475.282837 251.187210,497.729004 
	C251.408646,506.766479 255.879547,510.518646 263.160431,510.036743 
	C269.613861,509.609558 270.794678,504.847748 271.998840,499.065430 
M481.000092,495.417084 
	C481.001373,497.414337 480.898254,499.418121 481.021942,501.407745 
	C481.559753,510.058624 488.447693,514.983887 495.721588,511.943604 
	C501.039795,509.720825 501.825317,504.697662 501.878998,500.090485 
	C502.140656,477.624359 502.057373,455.153198 501.952209,432.684509 
	C501.927185,427.334076 498.251953,422.599915 494.290985,422.018097 
	C485.792419,420.769745 481.014954,424.877991 481.006622,433.522186 
	C480.987000,453.827667 481.000153,474.133179 481.000092,495.417084 
z"/>
<path fill="#EC2025" opacity="1.000000" stroke="none" 
	d="
M807.000000,376.003540 
	C767.571838,376.003540 728.643677,376.003540 689.363770,376.003540 
	C689.363770,355.087921 689.363770,335.361267 689.363770,314.999939 
	C691.296387,314.999939 693.232117,314.999939 695.167847,314.999939 
	C765.489319,314.999939 835.811157,315.131744 906.131958,314.919067 
	C927.024292,314.855865 940.012817,301.081421 940.971313,280.331573 
	C941.468506,269.569580 942.456848,258.744476 941.788757,248.037369 
	C941.048767,236.178177 939.491272,224.226379 936.749634,212.680634 
	C934.511475,203.255493 926.559937,198.393402 917.205933,197.132660 
	C909.867065,196.143524 902.369568,196.052246 894.942017,196.043884 
	C828.120117,195.968628 761.297974,195.999924 694.475952,195.999908 
	C692.508606,195.999908 690.541321,195.999908 688.295471,195.999908 
	C688.295471,175.321014 688.295471,155.055344 688.295471,134.002029 
	C689.887268,134.002029 691.631653,134.002045 693.376038,134.002029 
	C778.861572,134.001694 864.347900,133.846741 949.831421,134.263947 
	C957.538940,134.301544 965.437683,137.457138 972.882446,140.167740 
	C988.139465,145.722702 1001.322815,154.437088 1010.011292,168.613190 
	C1014.994202,176.743149 1018.933777,185.328690 1019.053040,195.244186 
	C1019.154480,203.681381 1020.013611,212.115402 1019.960815,220.547226 
	C1019.863098,236.149612 1019.122498,251.748642 1019.072815,267.350433 
	C1019.035828,278.950775 1019.517029,290.559845 1020.028259,302.153534 
	C1021.509155,335.735687 999.551270,361.007538 970.707581,370.024597 
	C960.277710,373.285156 949.769165,375.158051 938.791077,375.067169 
	C913.297119,374.856110 887.799438,374.875610 862.304749,375.041870 
	C844.035156,375.161011 825.768188,375.669006 807.000000,376.003540 
z"/>
<path fill="#EC2025" opacity="1.000000" stroke="none" 
	d="
M306.000000,375.000519 
	C225.541870,375.000519 145.583725,375.000519 65.000069,375.000519 
	C65.000069,372.862030 65.000069,371.092255 65.000069,369.322449 
	C65.000099,354.157684 65.160805,338.990204 64.904587,323.829773 
	C64.825264,319.136444 66.451508,316.283508 70.382004,313.798859 
	C103.365761,292.948578 136.231964,271.912415 169.160812,250.975113 
	C181.955353,242.839905 194.737091,234.677490 207.718857,226.849487 
	C210.483582,225.182358 214.086761,224.144470 217.312714,224.122131 
	C246.807602,223.917816 276.304535,223.974518 305.800629,224.054718 
	C308.146332,224.061096 310.489960,224.813202 314.239105,225.461716 
	C269.585815,255.792816 226.059692,285.358307 181.255936,315.791595 
	C232.613678,315.791595 282.560059,315.791595 332.750824,315.791595 
	C332.750824,335.716675 332.750824,354.981903 332.750824,375.000519 
	C324.011261,375.000519 315.255646,375.000519 306.000000,375.000519 
z"/>
<path fill="#EC2126" opacity="1.000000" stroke="none" 
	d="
M311.999847,134.000214 
	C319.130798,134.000214 325.761780,134.000214 332.694000,134.000214 
	C332.694000,153.309372 332.694000,172.232895 332.694000,191.578827 
	C243.817184,191.578827 154.802444,191.578827 65.393295,191.578827 
	C65.393295,172.748657 65.393295,153.706467 65.393295,134.000214 
	C147.391296,134.000214 229.445587,134.000214 311.999847,134.000214 
z"/>
<path fill="#313137" opacity="1.000000" stroke="none" 
	d="
M608.000000,133.998688 
	C618.162415,133.999008 627.824829,133.983765 637.487183,134.005127 
	C643.966675,134.019440 643.987915,134.042648 643.994507,140.800278 
	C644.008789,155.460449 644.005859,170.120636 643.996277,184.780823 
	C643.991638,191.976120 643.977783,191.996155 636.904968,191.997055 
	C587.593445,192.003311 538.281921,192.000717 488.970367,192.000732 
	C453.652649,192.000732 418.334930,192.004608 383.017212,191.996582 
	C376.035156,191.994995 376.013885,191.973572 376.007294,185.197327 
	C375.992981,170.537155 375.996124,155.876968 376.005432,141.216782 
	C376.010010,134.023407 376.023468,134.002823 383.099213,134.002319 
	C457.899475,133.997040 532.699707,133.998840 608.000000,133.998688 
z"/>
<path fill="#323238" opacity="1.000000" stroke="none" 
	d="
M643.997437,348.000000 
	C643.997314,354.830963 644.002930,361.161896 643.995605,367.492859 
	C643.987000,374.979767 643.982178,374.992126 636.710632,374.995880 
	C620.716675,375.004089 604.722656,374.998657 588.728699,374.998657 
	C520.421082,374.998657 452.113434,374.999603 383.805817,374.997131 
	C376.009857,374.996826 376.004456,374.987793 376.001831,366.996613 
	C375.997406,353.501678 375.998688,340.006775 376.001221,326.511841 
	C376.002808,318.006134 376.005798,318.000977 384.294769,318.000854 
	C465.930695,317.999512 547.566650,317.999969 629.202576,318.000214 
	C632.368042,318.000244 635.549988,318.208435 638.694946,317.955292 
	C642.948547,317.612885 644.166626,319.507446 644.058105,323.510834 
	C643.841431,331.501923 643.996155,339.503021 643.997437,348.000000 
z"/>
<path fill="#35353B" opacity="1.000000" stroke="none" 
	d="
M397.000244,280.000000 
	C391.168274,279.995667 385.833984,279.896637 380.505096,280.023224 
	C377.401367,280.096954 375.950928,279.051544 375.972351,275.731781 
	C376.068115,260.902771 376.045227,246.072693 375.989502,231.243256 
	C375.978607,228.345703 377.044403,226.835098 380.081451,227.009979 
	C381.243469,227.076889 382.413422,227.000412 383.579742,227.000397 
	C467.892487,226.999374 552.205200,226.998413 636.517944,227.001343 
	C643.981384,227.001602 643.991943,227.013672 643.996704,234.289703 
	C644.005005,247.119904 644.005493,259.950104 643.996399,272.780304 
	C643.991333,279.976807 643.979614,279.995911 636.941772,279.996552 
	C577.956177,280.001984 518.970581,279.999847 459.984955,279.999969 
	C439.156708,280.000031 418.328430,280.000000 397.000244,280.000000 
z"/>
<path fill="#848694" opacity="1.000000" stroke="none" 
	d="
M373.002319,477.999878 
	C366.416565,477.668915 360.278931,477.714783 354.259094,476.895294 
	C348.823883,476.155365 346.249237,472.695923 346.003876,467.481201 
	C345.792572,462.990143 348.880798,458.491577 353.473206,457.307953 
	C356.460693,456.537994 359.613007,456.068420 362.694092,456.054871 
	C385.682617,455.953644 408.687744,455.480530 431.655151,456.184540 
	C446.709442,456.645996 456.003784,460.552856 460.402527,474.886841 
	C462.836975,482.820007 462.638977,490.983887 459.596741,498.458496 
	C455.333862,508.932037 445.899536,512.523743 435.391144,512.903870 
	C423.745300,513.325134 412.071320,513.106689 400.411652,512.978149 
	C376.985016,512.719910 353.541901,511.630554 330.139679,512.225159 
	C311.845001,512.689941 299.849487,500.361206 295.023743,486.044250 
	C288.759491,467.459595 290.800873,449.835602 303.401093,434.272186 
	C309.011322,427.342560 317.032043,423.345215 325.661835,423.184174 
	C365.740051,422.436218 405.830200,422.307404 445.916718,422.061462 
	C448.831726,422.043579 451.805145,422.638458 454.657898,423.332672 
	C459.733978,424.567902 461.756897,427.656006 461.387665,432.987915 
	C460.979736,438.878967 457.676880,442.142242 451.182526,442.952362 
	C449.869354,443.116119 448.520264,442.999146 447.187714,442.999176 
	C410.038849,443.000214 372.889984,442.996979 335.741119,443.000793 
	C322.834137,443.002106 315.249359,449.990845 312.849152,462.651733 
	C311.469055,469.931580 312.822998,476.068695 316.541168,482.185974 
	C320.758972,489.125214 327.387878,491.827026 334.791016,491.887360 
	C366.940125,492.149353 399.092621,492.013428 431.243866,491.987000 
	C436.833221,491.982391 440.690979,489.489166 440.917511,485.587402 
	C441.138947,481.773163 438.742462,479.468018 435.430573,478.252380 
	C434.094330,477.761902 432.468292,478.009369 430.974121,478.008423 
	C411.816681,477.996368 392.659210,478.000122 373.002319,477.999878 
z"/>
<path fill="#838694" opacity="1.000000" stroke="none" 
	d="
M62.000423,490.977539 
	C62.000454,472.328033 62.091873,454.173767 61.968143,436.020935 
	C61.885944,423.961090 65.916435,421.141571 76.982040,421.079712 
	C114.620567,420.869354 152.261002,420.989563 189.900696,421.003082 
	C211.251877,421.010742 224.268677,433.267456 229.686127,451.901276 
	C234.391479,468.085876 232.904221,484.161682 221.910614,498.019257 
	C215.313080,506.335571 207.742676,512.329102 195.818634,512.185242 
	C155.520035,511.699097 115.211731,511.928467 74.907623,512.046570 
	C63.783524,512.079224 63.128101,508.216248 62.050621,499.461365 
	C61.727566,496.836395 62.000473,494.138092 62.000423,490.977539 
M189.985931,491.929077 
	C193.803085,490.630310 198.067245,490.019592 201.344772,487.890259 
	C208.262024,483.396210 210.668671,476.445770 211.133560,468.199768 
	C212.012955,452.601685 201.445328,442.518463 185.683105,442.818512 
	C153.715927,443.427002 121.729042,443.000244 89.750282,443.000275 
	C87.974541,443.000275 86.198799,443.000305 84.353470,443.000305 
	C84.353470,459.620148 84.353470,475.660126 84.353470,491.986725 
	C119.494270,491.986725 154.283264,491.986725 189.985931,491.929077 
z"/>
<path fill="#878A98" opacity="1.000000" stroke="none" 
	d="
M680.611572,440.876587 
	C677.488098,441.759430 674.667847,442.889557 671.836975,442.916809 
	C654.512024,443.083527 637.184631,443.000244 619.858093,443.000275 
	C618.071045,443.000275 616.283997,443.000275 613.999939,443.000275 
	C613.999939,453.431091 614.129639,463.381531 613.963074,473.327026 
	C613.799561,483.088379 613.469116,492.851776 612.952637,502.600555 
	C612.636414,508.568634 608.182312,513.128723 603.375610,512.995483 
	C597.894409,512.843506 593.306702,508.537018 593.065491,502.540833 
	C592.532410,489.290497 592.285095,476.027649 592.021667,462.767944 
	C591.896057,456.446747 592.000061,450.120972 592.000061,443.000000 
	C590.068542,443.000000 588.323364,443.000031 586.578186,443.000031 
	C568.585205,442.999939 550.592224,443.029877 532.599365,442.980286 
	C527.605530,442.966522 523.959106,440.961548 521.865417,436.028961 
	C519.969421,431.561859 521.488953,425.747406 525.341064,423.326599 
	C527.431824,422.012665 530.176208,421.101440 532.628723,421.094727 
	C579.443420,420.966400 626.258545,420.990967 673.073608,421.013184 
	C677.856567,421.015472 681.882263,422.814331 683.910767,427.315155 
	C686.169983,432.327728 685.127502,436.906525 680.611572,440.876587 
z"/>
<path fill="#878A98" opacity="1.000000" stroke="none" 
	d="
M784.243896,476.715424 
	C775.592712,465.403137 767.295654,454.273956 758.748596,443.340210 
	C755.215698,438.820801 751.238220,438.578186 747.656982,443.014343 
	C739.215820,453.470520 731.137451,464.222870 723.032043,474.945892 
	C714.649902,486.034912 706.475769,497.281311 698.076111,508.356812 
	C694.321960,513.306946 686.132385,514.625305 681.777222,511.287048 
	C677.330383,507.878571 676.582275,500.441986 680.498352,495.143890 
	C691.390320,480.407684 702.375183,465.739349 713.419312,451.116638 
	C720.129211,442.232574 726.251770,432.730255 734.003235,424.848053 
	C745.836487,412.815155 764.076904,414.985504 773.630371,427.160675 
	C791.210083,449.564697 808.608643,472.110870 826.070129,494.607574 
	C829.724304,499.315491 829.162170,507.353882 825.012085,510.468689 
	C818.905212,515.052124 812.106140,513.203613 806.915466,506.167786 
	C799.633240,496.297089 791.987488,486.694550 784.243896,476.715424 
z"/>
<path fill="#828593" opacity="1.000000" stroke="none" 
	d="
M846.999878,461.000000 
	C847.000061,451.504822 846.919067,442.508667 847.022949,433.514709 
	C847.128784,424.345978 853.102112,419.271515 861.173950,422.259094 
	C863.963806,423.291656 866.541870,426.910278 867.659424,429.924927 
	C868.984009,433.497955 868.908447,437.691711 868.947327,441.621307 
	C869.080811,455.112732 868.997498,468.606354 869.000000,482.099121 
	C869.001404,489.509705 871.463135,491.974915 879.113892,491.988037 
	C898.936523,492.022034 918.759338,491.999542 938.582031,491.999634 
	C958.737915,491.999725 978.893738,491.994110 999.049622,492.002991 
	C1006.155945,492.006134 1009.959778,495.641724 1009.999023,502.418610 
	C1010.033630,508.388184 1006.063599,511.995117 999.381897,511.996277 
	C955.405457,512.003784 911.428955,512.013733 867.452515,511.990326 
	C856.572266,511.984528 847.049622,502.404236 847.008301,491.483917 
	C846.970520,481.489410 847.000000,471.494659 846.999878,461.000000 
z"/>
<path fill="#ED252A" opacity="1.000000" stroke="none" 
	d="
M766.981812,280.729523 
	C766.010742,281.802673 765.053650,282.915924 764.092224,282.919647 
	C739.302307,283.015198 714.511963,282.995148 689.361328,282.995148 
	C689.361328,264.026062 689.361328,245.323715 689.361328,226.309113 
	C715.074402,226.309113 740.771118,226.309113 766.993713,226.309113 
	C766.993713,244.392563 766.993713,262.322571 766.981812,280.729523 
z"/>
<path fill="#878A98" opacity="1.000000" stroke="none" 
	d="
M271.995453,499.515076 
	C270.794678,504.847748 269.613861,509.609558 263.160431,510.036743 
	C255.879547,510.518646 251.408646,506.766479 251.187210,497.729004 
	C250.637238,475.282837 250.864395,452.812775 251.088409,430.355377 
	C251.159988,423.179657 256.277222,418.695496 262.602081,418.974487 
	C267.049805,419.170715 272.273987,424.403656 272.152771,431.190155 
	C271.748749,453.808960 271.999207,476.439423 271.995453,499.515076 
z"/>
<path fill="#878A98" opacity="1.000000" stroke="none" 
	d="
M481.000061,494.927856 
	C481.000153,474.133179 480.987000,453.827667 481.006622,433.522186 
	C481.014954,424.877991 485.792419,420.769745 494.290985,422.018097 
	C498.251953,422.599915 501.927185,427.334076 501.952209,432.684509 
	C502.057373,455.153198 502.140656,477.624359 501.878998,500.090485 
	C501.825317,504.697662 501.039795,509.720825 495.721588,511.943604 
	C488.447693,514.983887 481.559753,510.058624 481.021942,501.407745 
	C480.898254,499.418121 481.001373,497.414337 481.000061,494.927856 
z"/>
<path fill="#000000" opacity="1.000000" stroke="none" 
	d="
M189.529083,491.957886 
	C154.283264,491.986725 119.494270,491.986725 84.353470,491.986725 
	C84.353470,475.660126 84.353470,459.620148 84.353470,443.000305 
	C86.198799,443.000305 87.974541,443.000275 89.750282,443.000275 
	C121.729042,443.000244 153.715927,443.427002 185.683105,442.818512 
	C201.445328,442.518463 212.012955,452.601685 211.133560,468.199768 
	C210.668671,476.445770 208.262024,483.396210 201.344772,487.890259 
	C198.067245,490.019592 193.803085,490.630310 189.529083,491.957886 
z"/>
</svg>